<svg xmlns="http://www.w3.org/2000/svg" fill="none" viewBox="0 0 96 48" height="48" width="96">
<path fill="#152C52" d="M95.4337 40.6346C95.4337 40.3566 95.2288 40.1753 94.8794 40.1753H94.3331V41.4928H94.6223V41.0899H94.9196L95.1806 41.4928H95.4658L95.1726 41.0415C95.3413 40.9731 95.4377 40.832 95.4377 40.6346H95.4337ZM94.8633 40.8683H94.6183V40.4049H94.8633C95.0521 40.4049 95.1565 40.4895 95.1565 40.6346C95.1565 40.7796 95.0481 40.8683 94.8633 40.8683Z"></path>
<path fill="#152C52" d="M94.8272 39.6515C94.1564 39.6515 93.6463 40.1753 93.6463 40.832C93.6463 41.4888 94.1564 42.0126 94.8191 42.0126C95.4819 42.0126 96 41.4888 96 40.824C96 40.1592 95.4979 39.6515 94.8272 39.6515ZM94.8232 41.8313C94.2608 41.8313 93.8391 41.3921 93.8391 40.8361C93.8391 40.28 94.2608 39.8368 94.8312 39.8368C95.4015 39.8368 95.8112 40.2639 95.8112 40.828C95.8112 41.3921 95.3855 41.8313 94.8232 41.8313Z"></path>
<path fill="#152C52" d="M13.4876 20.0937L9.06941 20.138V24.4976L13.6403 24.4533C22.7298 24.4533 28.2244 19.8439 28.2244 12.2287C28.2244 4.61345 22.7257 0 13.6362 0H0V35.0743H4.99259V4.35961H13.4836C19.878 4.35961 23.2238 7.21632 23.2238 12.2246C23.2238 17.2329 19.878 20.0897 13.4836 20.0897L13.4876 20.0937Z"></path>
<path fill="#152C52" d="M60.353 35.0743L52.0628 23.3009C56.959 21.5482 59.7545 17.6399 59.7545 12.2287C59.7545 4.61345 54.2598 0 45.1703 0H31.5341V35.0743H36.5267V4.35961H45.0177C51.4121 4.35961 54.7579 7.21632 54.7579 12.2287C54.7579 17.241 51.4121 20.1461 45.0177 20.1461H40.5995V24.4049H45.1703C45.9214 24.4049 46.6685 24.3566 47.3674 24.3042L54.9105 35.0783H60.353V35.0743Z"></path>
<path fill="#152C52" d="M88.2922 26.1576L68.1572 0H63.2168V35.0743H68.2134V8.92067L88.3484 35.0743H93.2888V0H88.2922V26.1576Z"></path>
<path fill="#152C52" d="M4.05673 46.489L1.21702 39.994H0L3.47032 47.9033H4.5829L8.04117 39.994H6.91653L4.05673 46.489Z"></path>
<path fill="#152C52" d="M10.9692 39.994H9.84461V47.9033H10.9692V39.994Z"></path>
<path fill="#152C52" d="M14.5319 42.1174C14.5319 41.4284 15.1063 40.8643 16.4478 40.8643C17.1467 40.8643 17.9219 41.0657 18.6088 41.5089L18.9823 40.6064C18.3276 40.1551 17.3717 39.9053 16.4478 39.9053C14.3753 39.9053 13.4274 40.9449 13.4274 42.1657C13.4274 45.103 18.2031 43.8821 18.2031 45.8162C18.2031 46.5052 17.6167 47.037 16.2551 47.037C15.2429 47.037 14.2387 46.6542 13.6523 46.1224L13.2346 47.0048C13.8652 47.593 15.0501 48 16.2551 48C18.3397 48 19.3076 46.9605 19.3076 45.7517C19.3076 42.8466 14.5319 44.0554 14.5319 42.1254V42.1174Z"></path>
<path fill="#152C52" d="M22.7177 39.994H21.5931V47.9033H22.7177V39.994Z"></path>
<path fill="#152C52" d="M29.2527 39.9013C26.8307 39.9013 25.0513 41.6298 25.0513 43.9466C25.0513 46.2634 26.8307 47.9919 29.2527 47.9919C31.6747 47.9919 33.4339 46.2755 33.4339 43.9466C33.4339 41.6177 31.6546 39.9013 29.2527 39.9013ZM29.2527 46.9887C27.4854 46.9887 26.18 45.6993 26.18 43.9506C26.18 42.202 27.4854 40.9126 29.2527 40.9126C31.02 40.9126 32.3053 42.202 32.3053 43.9506C32.3053 45.6993 30.9999 46.9887 29.2527 46.9887Z"></path>
<path fill="#152C52" d="M41.4229 45.8927L36.6914 39.994H35.7675V47.9033H36.8962V42.0045L41.6237 47.9033H42.5515V39.994H41.4229V45.8927Z"></path>
<path fill="#152C52" d="M52.9263 40.9086C53.814 40.9086 54.5571 41.1906 55.2118 41.8232L55.9106 41.1221C55.1917 40.3203 54.1313 39.9013 52.8821 39.9013C50.4401 39.9013 48.6567 41.6097 48.6567 43.9466C48.6567 46.2836 50.4361 47.9919 52.858 47.9919C53.9626 47.9919 55.0551 47.6535 55.8424 46.9846V43.8983H54.7619V46.4729C54.1996 46.8356 53.577 46.9806 52.9143 46.9806C51.0988 46.9806 49.7814 45.6792 49.7814 43.9386C49.7814 42.1979 51.0988 40.9005 52.9263 40.9005V40.9086Z"></path>
<path fill="#152C52" d="M64.8917 42.7499C64.8917 41.0335 63.6506 39.994 61.6021 39.994H58.5254V47.9033H59.6541V45.4979H61.6021C61.7708 45.4979 61.9395 45.4858 62.0961 45.4737L63.7952 47.9033H65.0242L63.1525 45.248C64.2571 44.8532 64.8877 43.9708 64.8877 42.7499H64.8917ZM61.57 44.5349H59.6541V40.9771H61.57C63.0119 40.9771 63.767 41.6218 63.767 42.7499C63.767 43.8781 63.0119 44.5349 61.57 44.5349Z"></path>
<path fill="#152C52" d="M70.8924 39.9013C68.4704 39.9013 66.6911 41.6298 66.6911 43.9466C66.6911 46.2634 68.4704 47.9919 70.8924 47.9919C73.3144 47.9919 75.0737 46.2755 75.0737 43.9466C75.0737 41.6177 73.2943 39.9013 70.8924 39.9013ZM70.8924 46.9887C69.1251 46.9887 67.8198 45.6993 67.8198 43.9506C67.8198 42.202 69.1251 40.9126 70.8924 40.9126C72.6597 40.9126 73.945 42.202 73.945 43.9506C73.945 45.6993 72.6396 46.9887 70.8924 46.9887Z"></path>
<path fill="#152C52" d="M82.902 44.4462C82.902 46.1989 82.0906 46.9887 80.6728 46.9887C79.2549 46.9887 78.4556 46.1989 78.4556 44.4462V39.994H77.327V44.4906C77.327 46.7832 78.5882 47.996 80.6607 47.996C82.7333 47.996 83.9945 46.7872 83.9945 44.4906V39.994H82.902V44.4462Z"></path>
<path fill="#152C52" d="M89.9109 39.994H86.8342V47.9033H87.9629V45.5059H89.9109C91.9593 45.5059 93.2005 44.4664 93.2005 42.7499C93.2005 41.0335 91.9593 39.994 89.9109 39.994ZM89.8788 44.5228H87.9629V40.9771H89.8788C91.3207 40.9771 92.0758 41.6218 92.0758 42.7499C92.0758 43.8781 91.3207 44.5228 89.8788 44.5228Z"></path>
</svg>
