<svg fill="none" viewBox="0 0 87 18" height="18" width="87" xmlns="http://www.w3.org/2000/svg">
  <path fill="#828282" d="M2.2537 8.84404H5.68279C7.21382 8.81758 8.37637 8.33994 9.17188 7.41111C9.94739 6.52963 10.3344 5.55067 10.3344 4.47563C10.3344 3.6791 10.1816 2.98979 9.87598 2.40631C9.5832 1.80334 9.20187 1.33823 8.73342 1.01377C8.175 0.582083 7.62514 0.298004 7.081 0.15875C6.53685 0.0529167 5.97272 0 5.38716 0H0V14.5061H2.25512V8.84543L2.2537 8.84404ZM5.50855 2.07907C6.12125 2.06514 6.65825 2.20161 7.12099 2.48708C7.42662 2.65976 7.66513 2.89509 7.83508 3.1931C7.9979 3.52452 8.0793 3.93254 8.0793 4.41714C8.0793 5.00062 7.87793 5.53118 7.47661 6.00882C7.05529 6.50039 6.42545 6.75244 5.58853 6.76497H2.25227V2.07907H5.50855Z"></path>
  <path fill="#828282" d="M15.0589 8.30651H17.9367L21.0073 14.5047H23.6909L20.2418 8.06839C22.1328 7.35819 23.0925 6.01857 23.1196 4.04951C23.0782 2.70989 22.5855 1.67801 21.64 0.955284C20.8574 0.318892 19.8476 0 18.6094 0H12.8038V14.5061H15.0589V8.30651ZM15.0589 1.95931H18.5894C19.3106 1.95931 19.8619 2.10831 20.2418 2.40631C20.7246 2.7447 20.9731 3.29197 20.9873 4.04812C20.9873 4.67894 20.7803 5.2095 20.3646 5.6398C19.9433 6.10351 19.3106 6.34303 18.4666 6.35556H15.0589V1.95791V1.95931Z"></path>
  <path fill="#828282" d="M28.6396 4.19851H28.681L35.405 14.5047H37.5373V0H35.2822V10.3062H35.2407L28.5068 0H26.3845V14.5047H28.6396V4.19851Z"></path>
  <path fill="#828282" d="M42.3189 8.73959C42.6017 8.73542 42.8159 8.64629 42.963 8.47501C43.1058 8.31208 43.1772 8.13105 43.1772 7.93331C43.1772 7.7857 43.1487 7.65898 43.093 7.55176C43.0387 7.44035 42.9687 7.35402 42.8816 7.29414C42.7788 7.21476 42.6774 7.16184 42.576 7.13678C42.476 7.11728 42.3717 7.10754 42.2632 7.10754H41.2677V9.78539H41.6848V8.73959H42.3189ZM41.6862 7.49048H42.2875C42.4003 7.4877 42.5003 7.51277 42.5845 7.56568C42.6417 7.59771 42.6845 7.64088 42.7159 7.69658C42.7459 7.75785 42.7616 7.83305 42.7616 7.92217C42.7616 8.0294 42.7245 8.12827 42.6502 8.216C42.5717 8.30651 42.456 8.35386 42.3017 8.35525H41.6862V7.49048Z"></path>
  <path fill="#828282" d="M43.5571 7.10614V9.78539H43.9742V8.61427H45.061V9.78539H45.478V7.10614H45.061V8.25499H43.9742V7.10614H43.5571Z"></path>
  <path fill="#828282" d="M46.8091 8.29537L46.2279 7.10614H45.7865L46.6135 8.6825V9.78539H47.0048V8.6825L47.8331 7.10614H47.3918L46.8091 8.29537Z"></path>
  <path fill="#828282" d="M48.8786 9.40105C48.5772 9.39827 48.3173 9.31054 48.0988 9.13508L47.826 9.44004C48.1188 9.68513 48.4687 9.80767 48.8757 9.80767C49.5056 9.80071 49.8269 9.54031 49.8398 9.02924C49.8398 8.83986 49.7784 8.67275 49.657 8.52932C49.5341 8.3831 49.3442 8.29398 49.0857 8.25917C48.9557 8.24385 48.8515 8.22853 48.7772 8.21739C48.6415 8.19233 48.543 8.14916 48.4815 8.0851C48.4201 8.02244 48.3887 7.95281 48.3887 7.87622C48.3916 7.74811 48.4373 7.65063 48.5258 7.58657C48.6115 7.52391 48.7172 7.49327 48.8457 7.49327C49.0928 7.49884 49.3199 7.56707 49.5256 7.69937L49.7569 7.36516C49.5041 7.18691 49.2071 7.095 48.8657 7.08804C48.5815 7.09083 48.363 7.16324 48.2088 7.30528C48.0488 7.44871 47.9688 7.6367 47.9688 7.87065C47.9688 8.0656 48.0317 8.23132 48.1588 8.36639C48.2816 8.49868 48.4616 8.58363 48.6972 8.62123C48.8286 8.63933 48.95 8.65604 49.0614 8.67136C49.3028 8.71174 49.4213 8.8315 49.4199 9.03203C49.4156 9.27572 49.2342 9.39966 48.8772 9.40523L48.8786 9.40105Z"></path>
  <path fill="#828282" d="M50.6181 7.10614H50.2011V9.784H50.6181V7.10614Z"></path>
  <path fill="#828282" d="M51.5036 7.68544C51.5479 7.62974 51.605 7.58379 51.6764 7.54758C51.7464 7.51277 51.8307 7.49327 51.9292 7.49048C52.062 7.49327 52.1749 7.53087 52.2677 7.60189C52.3577 7.67848 52.4191 7.77039 52.4519 7.87761H52.8932C52.849 7.65341 52.7433 7.46542 52.5762 7.31363C52.4091 7.16324 52.1934 7.08665 51.9278 7.08386C51.7121 7.08665 51.5322 7.13678 51.3865 7.23426C51.2394 7.33034 51.1323 7.44174 51.0666 7.56429C51.0252 7.62974 50.9938 7.71468 50.9738 7.81912C50.9552 7.92496 50.9452 8.13245 50.9452 8.44438C50.9452 8.7563 50.9552 8.95683 50.9738 9.06545C50.9838 9.12254 50.9966 9.17128 51.0109 9.20888C51.0266 9.24509 51.0452 9.28408 51.0652 9.32446C51.1323 9.4484 51.238 9.55702 51.3851 9.65171C51.5293 9.74919 51.7093 9.80071 51.9264 9.80628C52.1649 9.80628 52.372 9.73944 52.5462 9.60854C52.7162 9.47486 52.8304 9.28408 52.8904 9.03481H52.4491C52.3334 9.27851 52.1592 9.40105 51.9249 9.40105C51.8264 9.40105 51.7421 9.38016 51.6721 9.33978C51.6007 9.30497 51.5422 9.26041 51.4993 9.2061C51.4451 9.149 51.4094 9.07381 51.3922 8.9805C51.3722 8.88721 51.3622 8.70896 51.3622 8.44577C51.3622 8.18258 51.3722 8.00294 51.3922 7.90685C51.4094 7.81634 51.4451 7.74253 51.4993 7.68405L51.5036 7.68544Z"></path>
  <path fill="#828282" d="M53.6816 7.10614H53.2646V9.784H53.6816V7.10614Z"></path>
  <path fill="#828282" d="M54.9713 7.10614L53.973 9.784H54.4143L54.6256 9.18521H55.6668L55.8796 9.784H56.3181L55.3197 7.10614H54.9713ZM54.7456 8.82593L55.1427 7.6562H55.1498L55.5468 8.82593H54.7442H54.7456Z"></path>
  <path fill="#828282" d="M58.2561 9.00975H58.2476L57.005 7.10614H56.6123V9.78539H57.0293V7.88179H57.0364L58.2775 9.78539H58.6717V7.10614H58.2561V9.00975Z"></path>
  <path fill="#828282" d="M62.0823 7.85394C62.0751 7.60607 61.9837 7.41668 61.8095 7.283C61.6652 7.16602 61.4781 7.10614 61.2496 7.10614H60.177V9.784H60.5941V8.63933H61.1254L61.6924 9.784H62.1879L61.551 8.59477C61.8995 8.46387 62.0765 8.216 62.0823 7.85254V7.85394ZM61.5738 8.14776C61.4953 8.2341 61.3796 8.27727 61.2239 8.28006H60.5941V7.4682H61.2453C61.3782 7.4682 61.4796 7.49605 61.551 7.55036C61.6395 7.61303 61.6866 7.71329 61.6881 7.85394C61.6881 7.97091 61.6495 8.06839 61.5738 8.14776Z"></path>
  <path fill="#828282" d="M62.5307 9.78539H64.2845V9.40105H62.9463V8.61427H64.0889V8.25499H62.9463V7.49048H64.2845V7.10614H62.5307V9.78539Z"></path>
  <path fill="#828282" d="M65.1386 7.68544C65.1829 7.62974 65.24 7.58379 65.3114 7.54758C65.3814 7.51277 65.4657 7.49327 65.5642 7.49048C65.697 7.49327 65.8099 7.53087 65.9027 7.60189C65.9927 7.67848 66.0541 7.77039 66.0869 7.87761H66.5282C66.484 7.65341 66.3783 7.46542 66.2112 7.31363C66.0441 7.16324 65.8284 7.08665 65.5628 7.08386C65.3471 7.08665 65.1672 7.13678 65.0215 7.23426C64.8744 7.33034 64.7673 7.44174 64.7016 7.56429C64.6602 7.62974 64.6287 7.71468 64.6087 7.81912C64.5902 7.92496 64.5802 8.13245 64.5802 8.44438C64.5802 8.7563 64.5902 8.95683 64.6087 9.06545C64.6187 9.12254 64.6316 9.17128 64.6459 9.20888C64.6616 9.24509 64.6801 9.28408 64.7001 9.32446C64.7673 9.4484 64.873 9.55702 65.0201 9.65171C65.1643 9.74919 65.3443 9.80071 65.5613 9.80628C65.7999 9.80628 66.0069 9.73944 66.1812 9.60854C66.3511 9.47486 66.4654 9.28408 66.5254 9.03481H66.0841C65.9684 9.27851 65.7942 9.40105 65.5599 9.40105C65.4614 9.40105 65.3771 9.38016 65.3071 9.33978C65.2357 9.30497 65.1772 9.26041 65.1343 9.2061C65.08 9.149 65.0443 9.07381 65.0272 8.9805C65.0072 8.88721 64.9972 8.70896 64.9972 8.44577C64.9972 8.18258 65.0072 8.00294 65.0272 7.90685C65.0443 7.81634 65.08 7.74253 65.1343 7.68405L65.1386 7.68544Z"></path>
  <path fill="#828282" d="M68.6462 7.56568C68.582 7.44175 68.4777 7.33173 68.3335 7.23565C68.1878 7.13817 68.005 7.08804 67.7865 7.08525C67.5708 7.08804 67.3909 7.13817 67.2452 7.23565C67.0981 7.33173 66.991 7.44314 66.9253 7.56568C66.8839 7.63113 66.8524 7.71608 66.8324 7.82052C66.8139 7.92635 66.8039 8.13384 66.8039 8.44577C66.8039 8.7577 66.8139 8.95822 66.8324 9.06684C66.8424 9.12394 66.8553 9.17268 66.8696 9.21027C66.8853 9.24648 66.9038 9.28547 66.9238 9.32586C66.991 9.44979 67.0967 9.55841 67.2438 9.6531C67.388 9.75058 67.568 9.8021 67.785 9.80767C68.0036 9.8021 68.1864 9.75197 68.332 9.6531C68.4763 9.55841 68.5806 9.44979 68.6448 9.32586C68.6905 9.26041 68.7234 9.17407 68.7405 9.06684C68.7562 8.95962 68.7648 8.75213 68.7648 8.44577C68.7648 8.13941 68.7562 7.92635 68.7405 7.82052C68.7234 7.71468 68.6905 7.62974 68.6448 7.56568H68.6462ZM68.322 8.9805C68.3021 9.07381 68.2649 9.149 68.2106 9.2061C68.1692 9.2618 68.1135 9.30636 68.045 9.33978C67.9721 9.38016 67.8865 9.40105 67.7865 9.40105C67.6865 9.40105 67.6037 9.38016 67.5337 9.33978C67.4623 9.30497 67.4037 9.26041 67.3609 9.2061C67.3066 9.149 67.2709 9.07381 67.2538 8.9805C67.2338 8.88721 67.2238 8.70896 67.2238 8.44577C67.2238 8.18258 67.2338 8.00294 67.2538 7.90685C67.2709 7.81634 67.3066 7.74253 67.3609 7.68405C67.4051 7.62835 67.4623 7.58239 67.5337 7.54619C67.6037 7.51137 67.6879 7.49188 67.7865 7.48909C67.885 7.49188 67.9721 7.50998 68.045 7.54619C68.1135 7.58239 68.1692 7.62835 68.2106 7.68405C68.2649 7.74114 68.3021 7.81634 68.322 7.90685C68.3406 8.00294 68.3506 8.18119 68.3506 8.44577C68.3506 8.71035 68.3406 8.88721 68.322 8.9805Z"></path>
  <path fill="#828282" d="M70.2787 8.851L69.4903 7.10614H69.099V9.78539H69.5146V8.11434H69.5232L70.0973 9.40105H70.4444L71.0185 8.11434H71.0285V9.78539H71.4441V7.10614H71.0499L70.2787 8.851Z"></path>
  <path fill="#828282" d="M74.2148 9.78539V7.10614H73.8206L73.048 8.851L72.261 7.10614H71.8683V9.78539H72.2853V8.11434H72.2924L72.8666 9.40105H73.2136L73.7878 8.11434H73.7978V9.78539H74.2148Z"></path>
  <path fill="#828282" d="M76.3157 7.49048V7.10614H74.5604V9.78539H76.3157V9.40105H74.9774V8.61427H76.1186V8.25499H74.9774V7.49048H76.3157Z"></path>
  <path fill="#828282" d="M77.1312 7.88179L78.3723 9.78539H78.7664V7.10614H78.3494V9.00975H78.3423L77.0997 7.10614H76.707V9.78539H77.124V7.88179H77.1312Z"></path>
  <path fill="#828282" d="M80.9059 9.33978C80.9359 9.29243 80.9616 9.24648 80.983 9.20192C81.003 9.15596 81.0187 9.10583 81.0287 9.04735C81.0501 8.93316 81.0601 8.73263 81.0601 8.44438C81.0601 8.17422 81.053 7.98344 81.0387 7.87343C81.0216 7.76342 80.9787 7.65759 80.913 7.55733C80.7274 7.25793 80.4489 7.10754 80.0761 7.10475H79.1149V9.78261H80.0475C80.2532 9.78261 80.4274 9.73805 80.5688 9.65032C80.7116 9.56816 80.8231 9.46372 80.9045 9.33839L80.9059 9.33978ZM80.029 9.40105H79.532V7.49048H80.029C80.2403 7.48631 80.4032 7.5615 80.5189 7.71608C80.576 7.77874 80.6117 7.85951 80.626 7.95977C80.6374 8.06003 80.6431 8.22714 80.6431 8.45969C80.6431 8.69225 80.6374 8.86075 80.626 8.94848C80.6131 9.03621 80.5831 9.11001 80.5374 9.16711C80.4317 9.32307 80.2618 9.40105 80.029 9.40105Z"></path>
  <path fill="#828282" d="M83.0682 7.49048V7.10614H81.3143V9.78539H83.0682V9.40105H81.73V8.61427H82.8725V8.25499H81.73V7.49048H83.0682Z"></path>
  <path fill="#828282" d="M85.1733 9.33978C85.2033 9.29243 85.229 9.24648 85.2505 9.20192C85.2705 9.15596 85.2862 9.10583 85.2962 9.04735C85.3176 8.93316 85.3276 8.73263 85.3276 8.44438C85.3276 8.17422 85.3204 7.98344 85.3062 7.87343C85.289 7.76342 85.2462 7.65759 85.1805 7.55733C84.9948 7.25793 84.7163 7.10754 84.3436 7.10475H83.3824V9.78261H84.315C84.5207 9.78261 84.6949 9.73805 84.8363 9.65032C84.9791 9.56816 85.0905 9.46372 85.1719 9.33839L85.1733 9.33978ZM84.2964 9.40105H83.7994V7.49048H84.2964C84.5078 7.48631 84.6706 7.5615 84.7863 7.71608C84.8434 7.77874 84.8791 7.85951 84.8934 7.95977C84.9048 8.06003 84.9105 8.22714 84.9105 8.45969C84.9105 8.69225 84.9048 8.86075 84.8934 8.94848C84.8806 9.03621 84.8506 9.11001 84.8049 9.16711C84.6992 9.32307 84.5292 9.40105 84.2964 9.40105Z"></path>
  <path fill="#828282" d="M41.2706 14.3933H41.6862V12.4897H41.6948L42.9359 14.3933H43.33V11.7155H42.913V13.6191H42.9059L41.6619 11.7155H41.2706V14.3933Z"></path>
  <path fill="#828282" d="M43.7814 11.7155V13.4868C43.7842 13.7681 43.8799 13.9923 44.0684 14.158C44.2527 14.3279 44.4826 14.4142 44.7582 14.417C45.0382 14.4142 45.2695 14.3279 45.4538 14.158C45.6366 13.9923 45.7294 13.7695 45.7351 13.4868V11.7155H45.3181V13.4422C45.3152 13.6246 45.2624 13.7639 45.1596 13.86C45.0539 13.9602 44.9196 14.0104 44.7582 14.0104C44.5969 14.0104 44.464 13.9602 44.3612 13.86C44.2555 13.7639 44.2013 13.626 44.1998 13.4422V11.7155H43.7814Z"></path>
  <path fill="#828282" d="M47.2247 14.3933V12.0775H47.976V11.7155H46.0536V12.0775H46.8063V14.3933H47.2247Z"></path>
  <path fill="#828282" d="M50.174 12.4633C50.1668 12.2154 50.0754 12.026 49.9012 11.8923C49.7569 11.7753 49.5698 11.7155 49.3413 11.7155H48.2687V14.3933H48.6858V13.2486H49.2171L49.7841 14.3933H50.2796L49.6427 13.2041C49.9926 13.0732 50.1682 12.8253 50.174 12.4619V12.4633ZM49.6655 12.7571C49.587 12.8434 49.4713 12.8866 49.3156 12.8894H48.6858V12.0775H49.337C49.4699 12.0775 49.5727 12.1054 49.6427 12.1597C49.7312 12.2223 49.7783 12.3226 49.7798 12.4633C49.7798 12.5802 49.7412 12.6777 49.6655 12.7571Z"></path>
  <path fill="#828282" d="M51.0394 11.7155H50.6224V14.3933H51.0394V11.7155Z"></path>
  <path fill="#828282" d="M52.3505 11.6932C52.1349 11.696 51.9549 11.7461 51.8092 11.8436C51.6621 11.941 51.555 12.0511 51.4893 12.1736C51.4479 12.2391 51.4165 12.324 51.3965 12.4284C51.3779 12.5343 51.3679 12.7418 51.3679 13.0537C51.3679 13.3656 51.3779 13.5675 51.3965 13.6748C51.4065 13.7319 51.4193 13.7806 51.4336 13.8182C51.4493 13.8544 51.4679 13.8934 51.4879 13.9338C51.555 14.0577 51.6607 14.1663 51.8078 14.261C51.9521 14.3585 52.132 14.41 52.3491 14.4156C52.5876 14.4156 52.7947 14.3501 52.9689 14.2179C53.1389 14.0842 53.2532 13.8934 53.3131 13.6441H52.8718C52.7561 13.8878 52.5819 14.0104 52.3477 14.0104C52.2491 14.0104 52.1649 13.9895 52.0949 13.9491C52.0235 13.9143 51.9649 13.8697 51.9221 13.8154C51.8678 13.7583 51.8321 13.6831 51.815 13.5898C51.795 13.4965 51.785 13.3183 51.785 13.0551C51.785 12.7919 51.795 12.6123 51.815 12.5162C51.8321 12.4257 51.8678 12.3518 51.9221 12.2934C51.9663 12.2377 52.0235 12.1917 52.0949 12.1555C52.1649 12.1193 52.2491 12.1012 52.3477 12.0984C52.4805 12.1012 52.5933 12.1388 52.6862 12.2098C52.7761 12.2864 52.8375 12.3769 52.8704 12.4855H53.3117C53.2674 12.2613 53.1617 12.0733 52.9946 11.9216C52.8275 11.7712 52.6119 11.6946 52.3462 11.6918L52.3505 11.6932Z"></path>
  <path fill="#828282" d="M53.6873 14.3933H55.4412V14.0104H54.1029V13.2236H55.2455V12.8629H54.1029V12.0998H55.4412V11.7155H53.6873V14.3933Z"></path>
  <path fill="#828282" d="M56.2752 13.4422V11.7155H55.8582V13.4868C55.861 13.7681 55.9567 13.9923 56.1438 14.158C56.3281 14.3279 56.558 14.4142 56.8336 14.417C57.1136 14.4142 57.3449 14.3279 57.5292 14.158C57.712 13.9923 57.8048 13.7695 57.8091 13.4868V11.7155H57.3921V13.4422C57.3892 13.6246 57.3364 13.7639 57.2335 13.86C57.1278 13.9602 56.9936 14.0104 56.8322 14.0104C56.6708 14.0104 56.538 13.9602 56.4352 13.86C56.3295 13.7639 56.2752 13.626 56.2738 13.4422H56.2752Z"></path>
  <path fill="#828282" d="M59.3016 14.3933V12.0775H60.0528V11.7155H58.1304V12.0775H58.8831V14.3933H59.3016Z"></path>
  <path fill="#828282" d="M60.764 11.7155H60.347V14.3933H60.764V11.7155Z"></path>
  <path fill="#828282" d="M61.5338 11.8436C61.3867 11.941 61.2796 12.0511 61.2139 12.1736C61.1725 12.2391 61.1411 12.324 61.1211 12.4284C61.1025 12.5343 61.0925 12.7418 61.0925 13.0537C61.0925 13.3656 61.1025 13.5675 61.1211 13.6748C61.1311 13.7319 61.1439 13.7806 61.1582 13.8182C61.1739 13.8544 61.1925 13.8934 61.2125 13.9338C61.2796 14.0577 61.3853 14.1663 61.5324 14.261C61.6767 14.3585 61.8566 14.41 62.0737 14.4156C62.3122 14.4156 62.5193 14.3501 62.6935 14.2179C62.8635 14.0842 62.9777 13.8934 63.0377 13.6441H62.5964C62.4807 13.8878 62.3065 14.0104 62.0723 14.0104C61.9737 14.0104 61.8895 13.9895 61.8195 13.9491C61.7481 13.9143 61.6895 13.8697 61.6467 13.8154C61.5924 13.7583 61.5567 13.6831 61.5395 13.5898C61.5195 13.4965 61.5095 13.3183 61.5095 13.0551C61.5095 12.7919 61.5195 12.6123 61.5395 12.5162C61.5567 12.4257 61.5924 12.3518 61.6467 12.2934C61.6909 12.2377 61.7481 12.1917 61.8195 12.1555C61.8895 12.1193 61.9737 12.1012 62.0723 12.0984C62.2051 12.1012 62.3179 12.1388 62.4107 12.2098C62.4993 12.2864 62.5621 12.3769 62.595 12.4855H63.0363C62.992 12.2613 62.8863 12.0733 62.7192 11.9216C62.5521 11.7712 62.3365 11.6946 62.0708 11.6918C61.8552 11.6946 61.6752 11.7447 61.5295 11.8422L61.5338 11.8436Z"></path>
  <path fill="#828282" d="M64.046 11.7155L63.0477 14.3933H63.489L63.7004 13.7945H64.7416L64.9544 14.3933H65.3928L64.3945 11.7155H64.046ZM63.819 13.4352L64.216 12.2655H64.2231L64.6202 13.4352H63.8175H63.819Z"></path>
  <path fill="#828282" d="M66.1026 11.7155H65.687V14.3933H67.4409V14.0104H66.1026V11.7155Z"></path>
  <path fill="#828282" d="M68.055 11.9104C67.895 12.0538 67.8165 12.2418 67.8165 12.4758C67.8165 12.6707 67.8793 12.8365 68.0064 12.9715C68.1292 13.1038 68.3092 13.1888 68.5448 13.2264C68.6762 13.2445 68.7976 13.2612 68.909 13.2765C69.1504 13.3169 69.2689 13.4366 69.2675 13.6372C69.2632 13.8809 69.0818 14.0048 68.7248 14.0104C68.4234 14.0076 68.1635 13.9199 67.945 13.7444L67.6722 14.0494C67.965 14.2944 68.3149 14.417 68.7219 14.417C69.3518 14.41 69.6731 14.1496 69.686 13.6386C69.686 13.4492 69.6246 13.2821 69.5032 13.1386C69.3803 12.9924 69.1904 12.9033 68.9319 12.8685C68.8019 12.8532 68.6977 12.8378 68.6234 12.8267C68.4877 12.8016 68.3892 12.7585 68.3278 12.6944C68.2664 12.6318 68.2349 12.5621 68.2349 12.4855C68.2378 12.3574 68.2835 12.2599 68.372 12.1959C68.4577 12.1332 68.5634 12.1026 68.692 12.1026C68.939 12.1068 69.1661 12.1764 69.3718 12.3087L69.6031 11.9745C69.3503 11.7962 69.0533 11.7043 68.712 11.6974C68.4277 11.7001 68.2092 11.7726 68.055 11.9146V11.9104Z"></path>
  <path fill="#828282" d="M71.0413 12.3491C71.0856 12.3073 71.1085 12.2418 71.1099 12.1513C71.1099 11.9661 71.0013 11.8742 70.7843 11.8756H70.4244V12.8016H70.5857V12.4257H70.6786L70.9514 12.8016H71.1399L70.8671 12.4215C70.9356 12.4145 70.9942 12.3908 71.0413 12.3491ZM70.5872 12.2808V12.0204H70.7357C70.7928 12.0204 70.8428 12.0288 70.8842 12.0441C70.9271 12.0622 70.9485 12.0984 70.9499 12.1513C70.9485 12.2084 70.9242 12.2446 70.8757 12.2613C70.8271 12.2753 70.7686 12.2822 70.7 12.2808H70.5872Z"></path>
  <path fill="#828282" d="M70.7328 11.5665C70.5015 11.5692 70.3115 11.6458 70.1601 11.7962C70.003 11.9466 69.9231 12.1346 69.9202 12.3602C69.9231 12.5858 70.003 12.771 70.1601 12.9186C70.3115 13.0718 70.5029 13.1498 70.7328 13.1526C70.9642 13.1498 71.157 13.0718 71.3113 12.9186C71.4655 12.771 71.5441 12.5844 71.5469 12.3602C71.5441 12.1346 71.4655 11.948 71.3113 11.7962C71.157 11.6458 70.9642 11.5692 70.7328 11.5665ZM71.1927 12.8142C71.0742 12.9339 70.9214 12.9952 70.7328 12.9966C70.5472 12.9952 70.3958 12.9339 70.2787 12.8142C70.1573 12.6986 70.0973 12.5468 70.0959 12.3602C70.0973 12.1708 70.1587 12.0176 70.2787 11.9021C70.3958 11.7851 70.5472 11.7252 70.7328 11.7238C70.9199 11.7252 71.0728 11.7851 71.1927 11.9021C71.3113 12.0176 71.3712 12.1708 71.3727 12.3602C71.3712 12.5468 71.3113 12.6986 71.1927 12.8142Z"></path>
  <path fill="#828282" d="M87 3.43122H39.6996V4.34473H87V3.43122Z"></path>
  <path fill="#828282" d="M87 17.0865H0.00714259V18H87V17.0865Z"></path>
</svg>