<svg fill="none" viewBox="0 0 62 22" height="22" width="62" xmlns="http://www.w3.org/2000/svg">
  <path fill="#828282" d="M9.50075 10.5496H13.0576C13.0105 10.3736 12.9304 10.2092 12.822 10.0662C12.6709 9.86516 12.4777 9.70353 12.2573 9.59391C11.9484 9.45366 11.6153 9.3813 11.2788 9.3813C10.9422 9.3813 10.6092 9.45366 10.3003 9.59391C10.0799 9.70353 9.88661 9.86516 9.73559 10.0662C9.62696 10.209 9.54707 10.3734 9.50075 10.5496ZM12.7323 12.5798H15.1331C14.774 13.3127 14.2195 13.92 13.5371 14.3277C12.8601 14.7395 12.0898 14.9523 11.3073 14.9435C10.5901 14.9461 9.88159 14.7795 9.23399 14.4561C8.63919 14.1642 8.12364 13.7205 7.73452 13.1654C7.36097 12.6314 7.15751 11.9874 7.15312 11.325C7.15767 10.6837 7.34276 10.0581 7.68511 9.5269C8.05066 8.95872 8.54747 8.49708 9.12911 8.18512C9.78784 7.8327 10.5178 7.6521 11.2571 7.65862C11.9954 7.65071 12.7254 7.8236 13.3889 8.16358C13.979 8.46536 14.4829 8.92516 14.8496 9.49659C15.2043 10.057 15.3929 10.7152 15.3915 11.388C15.3928 11.4923 15.387 11.5965 15.374 11.6999C15.3634 11.7797 15.3497 11.8539 15.3353 11.9297H9.47187C9.50748 12.1252 9.58156 12.3107 9.6894 12.4745C9.79723 12.6382 9.93644 12.7765 10.0981 12.8806C10.4618 13.1126 10.881 13.231 11.3065 13.222C11.6031 13.2306 11.8976 13.167 12.1668 13.0361C12.3801 12.9223 12.5717 12.7684 12.7323 12.5822" clip-rule="evenodd" fill-rule="evenodd"></path>
  <path fill="#828282" d="M21.169 7.88916H23.6527L19.7296 16.9977H17.2429L18.4847 14.3763L15.5807 7.88916H18.0789L19.6452 11.8523H19.6749L21.169 7.88916Z"></path>
  <path fill="#828282" d="M26.1493 10.5496H29.7061C29.6596 10.3735 29.5798 10.2091 29.4713 10.0662C29.3201 9.865 29.1265 9.70335 28.9058 9.59391C28.5969 9.45366 28.2639 9.3813 27.9273 9.3813C27.5907 9.3813 27.2577 9.45366 26.9488 9.59391C26.7286 9.70385 26.5354 9.86542 26.3841 10.0662C26.2759 10.2093 26.1961 10.3736 26.1493 10.5496ZM29.3839 12.5806H31.7824C31.4232 13.3134 30.8687 13.9207 30.1864 14.3284C29.5095 14.74 28.7396 14.9528 27.9573 14.9443C27.2402 14.9469 26.5317 14.7803 25.8841 14.4569C25.2893 14.1653 24.7739 13.7215 24.3853 13.1662C24.0125 12.6321 23.8103 11.9879 23.8077 11.3258C23.8118 10.6844 23.9969 10.0586 24.3397 9.5277C24.7054 8.95961 25.2022 8.49799 25.7837 8.18592C26.4425 7.83362 27.1724 7.65303 27.9117 7.65942C28.6503 7.65141 29.3805 7.82431 30.0443 8.16438C30.6346 8.46614 31.1387 8.92592 31.5058 9.49739C31.8607 10.0578 32.0495 10.7159 32.0484 11.3888C32.0487 11.4931 32.0426 11.5973 32.0302 11.7007C32.0195 11.7805 32.0066 11.8547 31.9914 11.9305H26.1212C26.1568 12.126 26.2309 12.3115 26.3388 12.4752C26.4466 12.639 26.5858 12.7773 26.7474 12.8814C27.1116 13.1135 27.5313 13.232 27.9573 13.2228C28.2539 13.2312 28.5483 13.1676 28.8177 13.0369C29.0305 12.9227 29.2218 12.7689 29.3823 12.583" clip-rule="evenodd" fill-rule="evenodd"></path>
  <path fill="#828282" d="M34.1354 10.8575H40.0778C39.9192 10.2358 39.5491 9.69656 39.0374 9.34183C38.4761 8.9354 37.8102 8.71809 37.1283 8.7188C36.437 8.71404 35.76 8.92446 35.1827 9.32348C34.6573 9.67461 34.2821 10.226 34.1361 10.8615M41.1221 11.6816H34.1354C34.1634 12.1148 34.326 12.5265 34.5982 12.8534C34.8906 13.2127 35.2564 13.4982 35.6683 13.6887C36.0998 13.8962 36.5685 14.005 37.0431 14.0078C37.61 14.0087 38.1697 13.8748 38.6802 13.6161C39.1551 13.3875 39.5498 13.0083 39.8088 12.532H40.8941C40.7028 12.9981 40.4136 13.4129 40.0482 13.7453C39.6578 14.1035 39.209 14.3848 38.7235 14.5757C38.2183 14.7779 37.6825 14.8825 37.1419 14.8845C36.4325 14.8875 35.7314 14.724 35.0899 14.4058C34.5129 14.1235 34.0144 13.6907 33.6421 13.1486C33.2863 12.6288 33.0944 12.0051 33.0935 11.365C33.0925 10.7249 33.2825 10.1005 33.6368 9.57956C34.0062 9.03757 34.5014 8.60369 35.0755 8.31914C35.7122 7.99959 36.4096 7.83593 37.1153 7.8405C37.7033 7.83823 38.2861 7.95468 38.8322 8.18353C39.3526 8.40127 39.8251 8.72839 40.2207 9.14479C40.5432 9.48024 40.7867 9.88994 40.9321 10.3414C41.0586 10.7763 41.1234 11.2284 41.1243 11.6832" clip-rule="evenodd" fill-rule="evenodd"></path>
  <path fill="#828282" d="M49.077 12.7529H50.2345C49.8835 13.4135 49.359 13.9543 48.7236 14.3109C48.033 14.6943 47.262 14.8904 46.4808 14.8813C45.7523 14.8861 45.0311 14.7296 44.3642 14.4218C43.7647 14.1502 43.2414 13.7221 42.8442 13.1781C42.4668 12.6518 42.263 12.0108 42.2636 11.3521C42.2668 10.7024 42.4732 10.0718 42.8511 9.55722C43.2502 9.01651 43.7712 8.58857 44.3673 8.31196C45.5203 7.76815 46.8254 7.697 48.0259 8.11253C48.5114 8.27818 48.9649 8.53346 49.365 8.86638C49.7431 9.17891 50.0469 9.57922 50.2527 10.0359H49.077C48.7884 9.62237 48.4041 9.29291 47.9605 9.07858C47.4891 8.84337 46.9739 8.72103 46.4519 8.7204C45.9099 8.71728 45.3733 8.83416 44.8772 9.06342C44.4302 9.26636 44.0395 9.58502 43.7418 9.98959C43.4591 10.378 43.3056 10.853 43.3048 11.3417C43.3053 11.8276 43.4492 12.3014 43.7167 12.6979C43.9964 13.1101 44.3725 13.4398 44.8088 13.6552C45.2959 13.897 45.8288 14.0202 46.3676 14.0157C46.9005 14.028 47.4296 13.9191 47.9187 13.6966C48.3662 13.4778 48.7621 13.1577 49.0777 12.7593"></path>
  <path fill="#828282" d="M55.4389 8.7196C54.9057 8.71542 54.3789 8.84218 53.9007 9.08975C53.4717 9.31036 53.104 9.64303 52.8329 10.0558C52.5738 10.4523 52.4345 10.9216 52.4331 11.4024C52.4359 11.8755 52.58 12.3359 52.8451 12.7186C53.1252 13.1206 53.4967 13.4425 53.9258 13.6552C54.3981 13.892 54.9154 14.0137 55.4389 14.011C55.9711 14.0166 56.4969 13.8889 56.9726 13.6384C57.3953 13.415 57.7552 13.0799 58.0168 12.666C58.2685 12.2657 58.4028 11.7966 58.4029 11.317C58.4063 10.9538 58.326 10.595 58.1688 10.2714C58.0115 9.94774 57.7821 9.66879 57.5 9.4583C57.2136 9.22421 56.892 9.04171 56.5485 8.91824C56.1917 8.78776 55.8167 8.72063 55.4389 8.7196ZM55.4389 7.8421C56.1297 7.84186 56.8113 8.00749 57.4316 8.32632C58.0056 8.61497 58.5043 9.04558 58.8848 9.58115C59.2426 10.0809 59.4396 10.6872 59.4472 11.3122C59.4426 11.9494 59.253 12.57 58.9038 13.0912C58.5359 13.6406 58.0429 14.0846 57.4696 14.3827C56.8393 14.7136 56.1437 14.8844 55.4389 14.8813C54.7394 14.8832 54.0482 14.7213 53.4158 14.4074C52.8371 14.125 52.3342 13.6963 51.952 13.1598C51.5903 12.6506 51.3928 12.0335 51.3881 11.3984C51.3908 10.7559 51.5821 10.13 51.9361 9.60588C52.3085 9.05887 52.8069 8.61976 53.3846 8.32951C54.0243 8.00509 54.7262 7.83838 55.4366 7.8421" clip-rule="evenodd" fill-rule="evenodd"></path>
  <path fill="#828282" d="M8.13351 3.90848C15.5754 0.307527 25.8453 -1.05899 33.3891 0.88668C39.4143 2.43986 42.2119 5.72253 41.4367 9.36497C41.0567 6.33837 38.1611 3.36044 32.5242 1.90618C25.0678 -0.0155541 15.2053 1.08212 8.13351 3.90848Z"></path>
  <path fill="#828282" d="M16.4008 21.9595C13.3441 22.0393 9.20967 22.0672 6.58008 21.3892C2.41452 20.3146 0.964439 18.1121 0 15.837C1.292 17.9852 2.73068 19.8304 7.02468 20.9369C10.1137 21.5779 13.2522 21.9202 16.4008 21.9595Z"></path>
  <path fill="#828282" d="M18.9012 3.87737C22.5044 2.95926 26.2554 2.8803 29.8908 3.64603C32.6762 4.36399 34.3269 5.72013 34.8118 7.38739C33.7212 6.12059 31.8311 5.06041 29.2053 4.38314C25.8244 3.58951 22.3379 3.41838 18.9012 3.87737ZM19.9226 19.4331C16.4271 20.2813 12.799 20.3335 9.28263 19.5863C5.91128 18.7168 4.20128 16.9139 4.2104 14.7512C5.04108 16.4879 7.1896 17.9677 10.5283 18.8292C13.6076 19.5601 16.7791 19.764 19.9203 19.4331"></path>
  <path fill="#828282" d="M60.8463 7.02362C61.1259 6.99955 61.4033 7.0915 61.619 7.27972C61.8347 7.46795 61.9715 7.73745 62 8.03036C61.9499 8.31314 61.8072 8.5686 61.5964 8.75246C61.3857 8.93632 61.1203 9.03697 60.8463 9.03697C60.5723 9.03697 60.3069 8.93632 60.0962 8.75246C59.8855 8.5686 59.7427 8.31314 59.6926 8.03036C59.7211 7.73751 59.858 7.46809 60.0737 7.27999C60.2894 7.09189 60.5668 7.00013 60.8463 7.02442M60.8463 8.80974C60.9885 8.78834 61.1218 8.72449 61.2304 8.62581C61.339 8.52713 61.4183 8.39776 61.4588 8.25313C61.4994 8.10849 61.4994 7.95467 61.459 7.80999C61.4187 7.66531 61.3395 7.53586 61.231 7.43705C61.1225 7.33824 60.9893 7.27425 60.8471 7.25268C60.705 7.23111 60.5599 7.25288 60.4292 7.3154C60.2985 7.37791 60.1877 7.47854 60.1099 7.60529C60.0321 7.73205 59.9907 7.8796 59.9906 8.03036C59.9975 8.14071 60.0252 8.24851 60.0721 8.34756C60.1189 8.4466 60.184 8.53491 60.2636 8.60738C60.3432 8.67985 60.4356 8.73505 60.5357 8.76978C60.6357 8.80452 60.7413 8.8181 60.8463 8.80974ZM60.4032 7.49269H60.7908C61.0698 7.49269 61.3365 7.54933 61.3365 7.80381C61.3366 7.88353 61.3088 7.96052 61.2586 8.02031C61.2084 8.0801 61.139 8.11857 61.0637 8.12848L61.3738 8.54809H61.0477L60.7718 8.14284H60.7004V8.54809H60.4025L60.4032 7.49269ZM60.6974 7.93064H60.8433C60.9193 7.93064 61.0386 7.93065 61.0386 7.81657C61.0386 7.70249 60.9178 7.70249 60.8433 7.70249H60.7004L60.6974 7.93064Z"></path>
</svg>