<svg fill="none" viewBox="0 0 60 12" height="12" width="60" xmlns="http://www.w3.org/2000/svg">
<path fill="#828282" d="M12.979 0L10.7399 11.8055H12.6577L14.8813 0H12.979Z"></path>
<path fill="#828282" d="M14.9047 11.807L16.4353 3.7139H18.3383L16.8071 11.807H14.9047ZM17.6979 2.54746C17.566 2.54993 17.435 2.52455 17.3133 2.47293C17.1915 2.4213 17.0817 2.34456 16.9908 2.24758C16.8998 2.15059 16.8298 2.03549 16.7851 1.90957C16.7403 1.78365 16.7219 1.64967 16.731 1.51615C16.7271 1.36137 16.7541 1.20739 16.8102 1.06342C16.8664 0.919453 16.9506 0.78845 17.0578 0.678244C17.165 0.568038 17.293 0.480894 17.4342 0.422021C17.5754 0.363148 17.7268 0.333756 17.8794 0.335602C18.0156 0.331324 18.1511 0.355711 18.2775 0.407225C18.4039 0.458738 18.5184 0.53626 18.6138 0.634901C18.7092 0.733543 18.7834 0.851164 18.8317 0.980347C18.8801 1.10953 18.9015 1.24747 18.8946 1.38547C18.8962 1.54143 18.8664 1.69607 18.8072 1.84C18.748 1.98394 18.6605 2.11416 18.5502 2.22277C18.4398 2.33137 18.3089 2.41609 18.1653 2.47178C18.0216 2.52746 17.8684 2.55296 17.7147 2.54671L17.6979 2.54746Z"></path>
<path fill="#828282" d="M19.0688 11.8107L20.0065 6.82341C20.2209 5.67553 20.3205 4.44747 20.4185 3.71389H22.0742C22.0252 4.26259 21.9754 4.82762 21.8927 5.42606H21.9418C22.1417 4.90259 22.4834 4.44711 22.9274 4.11212C23.3715 3.77713 23.8999 3.57628 24.4516 3.53273C24.5888 3.53574 24.7257 3.54714 24.8615 3.56688L24.4823 5.4617C24.3631 5.44072 24.2425 5.42931 24.1215 5.42755C22.7608 5.42755 21.8912 6.82341 21.5794 8.55191L20.9697 11.8107H19.0688Z"></path>
<path fill="#828282" d="M29.8871 11.8196C29.9039 11.3377 29.9698 10.6895 30.0335 9.99159H29.9837C29.1946 11.4869 28.1458 12.0015 27.1291 12C25.7033 12 24.7693 10.8685 24.7707 9.23797C24.7497 8.48302 24.8811 7.73169 25.1566 7.03005C25.4321 6.32842 25.8459 5.69126 26.3728 5.15768C26.8998 4.62409 27.5286 4.20532 28.2207 3.92705C28.9129 3.64878 29.6538 3.51687 30.398 3.53941C31.2146 3.54472 32.0262 3.66976 32.8076 3.91066L31.9841 8.13315C31.7555 9.34956 31.6447 10.5857 31.6533 11.824L29.8871 11.8196ZM30.6791 5.12016C30.4215 5.0589 30.1574 5.03046 29.893 5.03552C28.1224 5.03552 26.7602 7.04467 26.7587 8.89123C26.7587 9.7384 27.0691 10.4371 27.905 10.4378C28.7906 10.4378 29.8739 9.30998 30.2516 7.24514L30.6791 5.12016Z"></path>
<path fill="#828282" d="M39.2056 0.483356H40.6695L40.6607 11.8292H37.5477C37.0648 11.8517 36.5826 11.7698 36.1333 11.5889C35.6839 11.4081 35.2776 11.1324 34.9412 10.7801C34.2677 10.008 33.9197 8.99867 33.9721 7.96906C33.9555 7.47077 34.0376 6.97417 34.2137 6.50867C34.3897 6.04316 34.656 5.61822 34.9969 5.259C35.3347 4.90818 35.7409 4.63258 36.1895 4.44978C36.6381 4.26698 37.1194 4.18098 37.6026 4.19725C38.1505 4.20883 38.6923 4.31634 39.2041 4.51503L39.2056 0.483356ZM39.1975 10.5603L39.2012 5.82626C38.7765 5.60028 38.3048 5.48015 37.8251 5.47581C37.5017 5.46046 37.1788 5.51703 36.8791 5.64157C36.5794 5.7661 36.3103 5.95559 36.0904 6.19676C35.6388 6.73961 35.4077 7.43642 35.4441 8.14577C35.4025 8.78888 35.6023 9.42413 36.0033 9.92402C36.1946 10.1507 36.4397 10.3242 36.7155 10.4282C37.1577 10.5371 37.6129 10.5814 38.0674 10.5596L39.1975 10.5603Z"></path>
<path fill="#828282" d="M48.8352 8.22967L43.6566 8.22522C43.6613 8.86686 43.9157 9.48063 44.3644 9.93293C44.5898 10.1463 44.8546 10.3124 45.1436 10.4214C45.4325 10.5305 45.7398 10.5805 46.0479 10.5685C47.0082 10.5696 47.9423 10.2506 48.7064 9.66043V11.106C48.297 11.3902 47.8469 11.6088 47.372 11.7542C46.8676 11.8928 46.3464 11.958 45.824 11.948C45.1326 11.9795 44.4478 11.8008 43.8572 11.435C43.3483 11.0856 42.9341 10.6123 42.6524 10.0584C42.341 9.43826 42.1857 8.74951 42.2007 8.0537C42.1575 7.04046 42.4979 6.04882 43.1523 5.28202C43.4632 4.93174 43.8459 4.65477 44.2736 4.47057C44.7012 4.28637 45.1634 4.19941 45.6277 4.21581C46.0694 4.19803 46.5092 4.28238 46.914 4.46246C47.3188 4.64255 47.6779 4.91366 47.9641 5.25529C48.5766 6.04638 48.8855 7.03585 48.8337 8.04034L48.8352 8.22967ZM43.6896 7.33869H47.3954C47.3923 6.83491 47.2075 6.34973 46.8758 5.97475C46.7118 5.81262 46.5167 5.68639 46.3027 5.60389C46.0886 5.52138 45.8601 5.48435 45.6314 5.49511C45.1576 5.4756 44.6955 5.64726 44.3461 5.97253C43.9855 6.34231 43.7554 6.82259 43.6917 7.33869"></path>
<path fill="#828282" d="M55.4191 4.36951H57.2811L54.2473 8.04851L57.4912 11.8404H55.6218L53.3125 9.15926L51.1255 11.8367H49.2956L52.4005 8.05371L49.3 4.36505H51.1372L53.3162 6.93033L55.4191 4.36951Z"></path>
<path fill="#828282" d="M8.56385 6.50785C8.56691 6.80366 8.48374 7.0938 8.3248 7.34183C8.16586 7.58986 7.93823 7.78472 7.67049 7.90197C7.40274 8.01921 7.1068 8.0536 6.81985 8.00082C6.5329 7.94803 6.26772 7.81044 6.0576 7.6053C5.84748 7.40015 5.7018 7.13662 5.63883 6.84777C5.57586 6.55892 5.59842 6.25764 5.70367 5.98175C5.80893 5.70587 5.99219 5.46768 6.23045 5.29708C6.4687 5.12649 6.75133 5.0311 7.04285 5.02289C7.43864 5.01533 7.82118 5.16751 8.1064 5.44597C8.39162 5.72443 8.55616 6.10638 8.56385 6.50785Z"></path>
<path fill="#828282" d="M1.67032 6.74248L0.404038 6.45959C0.359273 5.44189 0.677896 4.44195 1.30141 3.64336C1.83416 2.88482 2.52484 2.25441 3.32453 1.79681L3.33478 1.79087L3.35747 1.78047C3.87512 1.52015 4.42905 1.34186 4.99997 1.25183C7.54131 0.583592 9.85428 1.48274 10.6872 3.21718L10.4047 4.76896C5.9764 -0.178194 1.62128 6.39648 1.66958 6.74174"></path>
<path fill="#828282" d="M9.06451 11.4699C7.95229 11.8366 6.78692 12.0098 5.61774 11.9822C2.19 11.9799 4.1996e-08 10.1661 4.1996e-08 7.25628C-0.000126465 6.14273 0.285564 5.04834 0.828958 4.08079C1.37235 3.11324 2.15473 2.30588 3.09909 1.73815C4.57832 0.82621 6.28522 0.365829 8.01562 0.412078C9.00105 0.370892 9.98348 0.548261 10.8944 0.931815L10.2268 2.49548C9.43025 2.2014 8.58544 2.06504 7.73821 2.0938C6.53795 2.07441 5.3614 2.43375 4.37122 3.12214C3.77356 3.57524 3.28972 4.165 2.95904 4.84348C2.62836 5.52196 2.46017 6.27002 2.46815 7.02685C2.46815 8.90682 3.60121 10.3205 6.20623 10.3227C7.1056 10.3388 8.00068 10.1932 8.85004 9.89283L9.06451 11.4699Z"></path>
<path fill="#828282" d="M59.9997 5.24712C60.0049 5.44831 59.9508 5.64651 59.8444 5.81635C59.7379 5.9862 59.584 6.11997 59.4022 6.20054C59.2204 6.28111 59.019 6.30482 58.8238 6.26863C58.6286 6.23244 58.4485 6.138 58.3066 5.99739C58.1646 5.85679 58.0672 5.67642 58.0269 5.47936C57.9866 5.2823 58.0052 5.07752 58.0802 4.89122C58.1553 4.70492 58.2835 4.54559 58.4484 4.4336C58.6132 4.32162 58.8072 4.26207 59.0056 4.26259C59.1349 4.26003 59.2634 4.28358 59.3836 4.33185C59.5038 4.38012 59.6133 4.45216 59.7058 4.54378C59.7983 4.6354 59.8719 4.74477 59.9224 4.86551C59.9728 4.98626 59.9991 5.11598 59.9997 5.24712ZM58.2547 5.24712C58.2515 5.34968 58.2688 5.45183 58.3055 5.54745C58.3422 5.64307 58.3974 5.7302 58.4681 5.80361C58.5388 5.87703 58.6233 5.93523 58.7167 5.97471C58.81 6.0142 58.9104 6.03416 59.0115 6.03341C59.111 6.03298 59.2094 6.01227 59.3008 5.97251C59.3923 5.93276 59.475 5.87477 59.544 5.80198C59.6129 5.7292 59.6668 5.64311 59.7023 5.54881C59.7378 5.45452 59.7543 5.35394 59.7507 5.25306C59.7542 5.1514 59.7376 5.05005 59.7018 4.95504C59.6659 4.86003 59.6116 4.7733 59.5421 4.69998C59.4726 4.62666 59.3892 4.56826 59.297 4.52823C59.2048 4.48821 59.1057 4.46738 59.0054 4.46698C58.9051 4.46658 58.8057 4.48662 58.7132 4.52592C58.6207 4.56521 58.5369 4.62295 58.4669 4.69571C58.3968 4.76847 58.3418 4.85478 58.3052 4.9495C58.2686 5.04422 58.2519 5.14543 58.2547 5.24712ZM58.8512 5.76686H58.6265V4.77565C58.7495 4.75378 58.8742 4.74383 58.999 4.74595C59.1162 4.7369 59.2335 4.7627 59.3365 4.8202C59.3672 4.84674 59.3915 4.87994 59.4079 4.91733C59.4242 4.95473 59.4322 4.99537 59.4309 5.03626C59.4267 5.09141 59.4047 5.14362 59.3683 5.18482C59.3319 5.22602 59.2832 5.25392 59.2296 5.2642V5.27608C59.2779 5.29593 59.3199 5.32876 59.3511 5.37101C59.3823 5.41327 59.4015 5.46336 59.4067 5.5159C59.417 5.60148 59.4418 5.68461 59.4799 5.76166H59.237C59.2008 5.6859 59.1761 5.60506 59.1637 5.52184C59.1461 5.41344 59.0869 5.36592 58.9625 5.36592H58.8556L58.8512 5.76686ZM58.857 5.20852H58.9632C59.0876 5.20852 59.1879 5.16619 59.1879 5.06448C59.1879 4.97463 59.1227 4.91598 58.9807 4.91598C58.9392 4.91504 58.8977 4.91903 58.857 4.92785V5.20852Z"></path>
</svg>